<svg width="59" height="51" viewBox="0 0 59 51" fill="none" xmlns="http://www.w3.org/2000/svg">
<g clip-path="url(#clip0_7010_1616)">
<g clip-path="url(#clip1_7010_1616)">
<path d="M40.5662 21.7322C38.5542 16.9541 34.8385 13.0941 30.1406 10.9015C25.4428 8.70895 20.0977 8.34025 15.1432 9.867C10.1888 11.3937 5.97837 14.707 3.32943 19.1635C0.680475 23.6201 -0.218026 28.9019 0.808371 33.9837C1.83477 39.0654 4.71284 43.5845 8.88382 46.6636C13.0548 49.7427 18.221 51.162 23.3797 50.6461C28.5384 50.1302 33.3213 47.7159 36.7999 43.872C40.2786 40.0279 42.2048 35.0283 42.2045 29.844C42.2078 27.0575 41.6507 24.2988 40.5662 21.7322ZM40.0092 29.844C40.0096 31.4136 39.8116 32.9771 39.4196 34.497L35.2564 33.1447C35.7747 30.9342 35.7658 28.6328 35.2304 26.4263L39.3915 25.074C39.8021 26.6307 40.0097 28.234 40.0092 29.844ZM21.3711 43.025C18.7636 43.0272 16.2142 42.2559 14.0451 40.8089C11.8761 39.3618 10.185 37.304 9.1857 34.8957C8.18639 32.4873 7.92383 29.8367 8.43119 27.2792C8.93856 24.7216 10.1931 22.372 12.0361 20.5275C13.879 18.683 16.2276 17.4265 18.7848 16.9171C21.3419 16.4076 23.9928 16.668 26.4019 17.6653C28.811 18.6626 30.8703 20.3521 32.3191 22.5199C33.7679 24.6878 34.5412 27.2366 34.5412 29.844C34.5379 33.3387 33.148 36.6894 30.6768 39.1606C28.2056 41.6318 24.855 43.0216 21.3603 43.025H21.3711ZM2.73302 29.844C2.7328 28.2348 2.9404 26.6322 3.35067 25.0762L7.51174 26.4285C6.97637 28.6349 6.96746 30.9363 7.48574 33.1469L3.32033 34.4992C2.92145 32.9794 2.71683 31.4153 2.71135 29.844H2.73302ZM38.7262 22.9934L34.5672 24.3458C33.8482 22.6263 32.799 21.0647 31.479 19.7491C31.1986 19.4703 30.9097 19.2037 30.6121 18.9494L33.1586 15.4147C35.6206 17.4291 37.5292 20.0373 38.7045 22.9934H38.7262ZM31.4009 14.123L28.8328 17.6599C26.9099 16.4781 24.7317 15.7743 22.4807 15.6076V11.2298C25.6456 11.4168 28.7095 12.413 31.3793 14.123H31.4009ZM20.2831 11.2298V15.6076C18.0322 15.7743 15.854 16.4781 13.931 17.6599L11.3629 14.123C14.0326 12.413 17.0966 11.4168 20.2615 11.2298H20.2831ZM9.58358 15.4125L12.1365 18.9494C11.8375 19.2037 11.5485 19.4703 11.2697 19.7491C9.95015 21.0643 8.90097 22.6252 8.1814 24.3436L4.02252 22.9934C5.19663 20.0378 7.10277 17.4291 9.56192 15.4125H9.58358ZM3.99435 36.5862L8.15322 35.236C8.8684 36.9963 9.92794 38.5959 11.2697 39.941C11.5326 40.2041 11.8035 40.4547 12.0824 40.6931L9.51207 44.23C7.04424 42.1958 5.13739 39.5647 3.97265 36.5862H3.99435ZM11.2697 45.526L13.8378 41.9912C15.7765 43.1949 17.9773 43.9123 20.2528 44.0826V48.4604C17.055 48.2756 13.9599 47.2645 11.2697 45.526ZM22.4481 48.4604V44.0826C24.7238 43.9141 26.9247 43.1973 28.8632 41.9934L31.4313 45.5281C28.7431 47.264 25.6514 48.2742 22.4569 48.4604H22.4481ZM33.2041 44.2321L30.6337 40.6952C30.9126 40.454 31.1842 40.2026 31.4487 39.941C32.7962 38.5976 33.8611 36.9978 34.5802 35.236L38.7392 36.5884C37.5787 39.5658 35.6764 42.197 33.2127 44.2321H33.2041Z" fill="#F5B923"/>
<path d="M16.9443 24.6185C17.1165 24.6185 17.2849 24.5674 17.4282 24.4717C17.5714 24.376 17.683 24.24 17.749 24.0808C17.815 23.9217 17.8322 23.7466 17.7986 23.5776C17.7649 23.4086 17.682 23.2534 17.5602 23.1316C17.4383 23.0098 17.2832 22.9269 17.1142 22.8932C16.9452 22.8596 16.7701 22.8768 16.611 22.9428C16.4517 23.0087 16.3157 23.1204 16.22 23.2636C16.1243 23.4069 16.0732 23.5753 16.0732 23.7475C16.0736 23.9784 16.1655 24.1997 16.3287 24.363C16.492 24.5263 16.7134 24.6182 16.9443 24.6185Z" fill="#F5B923"/>
<path d="M31.915 31.4203C32.2022 31.4207 32.4842 31.3427 32.7304 31.1946C32.9765 31.0465 33.1774 30.834 33.3116 30.5801C33.4456 30.3261 33.5076 30.0404 33.491 29.7538C33.4744 29.4672 33.3796 29.1905 33.2171 28.9537C33.0545 28.7169 32.8304 28.5291 32.5687 28.4104C32.3072 28.2917 32.0181 28.2469 31.7328 28.2805C31.4474 28.3141 31.1768 28.4251 30.95 28.6014C30.7232 28.7775 30.5488 29.0124 30.4459 29.2804H23.5248C23.4221 28.8803 23.2137 28.5152 22.9215 28.2232C22.6293 27.9311 22.264 27.7229 21.8637 27.6203V20.6965C22.2075 20.5645 22.4941 20.3166 22.6742 19.9955C22.8541 19.6744 22.9158 19.3005 22.8487 18.9386C22.7816 18.5768 22.5898 18.2499 22.3068 18.0145C22.0237 17.7792 21.6671 17.6504 21.2988 17.6504C20.9307 17.6504 20.574 17.7792 20.291 18.0145C20.0078 18.2499 19.8161 18.5768 19.749 18.9386C19.682 19.3005 19.7437 19.6744 19.9236 19.9955C20.1035 20.3166 20.3903 20.5645 20.7341 20.6965V27.6136C20.3337 27.7163 19.9684 27.9244 19.6762 28.2165C19.3839 28.5086 19.1756 28.8737 19.0729 29.2738H12.1519C12.0197 28.9304 11.7714 28.6441 11.4501 28.4645C11.1289 28.2849 10.7548 28.2233 10.3929 28.2906C10.031 28.3577 9.70399 28.5494 9.46866 28.8322C9.23333 29.1152 9.10449 29.4715 9.10449 29.8394C9.10449 30.2073 9.23333 30.5636 9.46866 30.8466C9.70399 31.1294 10.031 31.3211 10.3929 31.3882C10.7548 31.4555 11.1289 31.3939 11.4501 31.2143C11.7714 31.0347 12.0197 30.7484 12.1519 30.405H19.0729C19.1733 30.8064 19.3799 31.1733 19.6709 31.4673C19.962 31.7614 20.3269 31.9717 20.7273 32.0764V38.9935C20.3836 39.1254 20.0968 39.3734 19.9169 39.6945C19.737 40.0156 19.6752 40.3895 19.7423 40.7513C19.8095 41.1131 20.0011 41.44 20.2843 41.6753C20.5674 41.9108 20.9239 42.0396 21.2922 42.0396C21.6604 42.0396 22.0169 41.9108 22.3001 41.6753C22.5831 41.44 22.7749 41.1131 22.842 40.7513C22.9091 40.3895 22.8473 40.0156 22.6674 39.6945C22.4875 39.3734 22.2008 39.1254 21.857 38.9935V32.0764C22.2573 31.9737 22.6227 31.7656 22.9149 31.4735C23.2071 31.1814 23.4155 30.8162 23.518 30.4161H30.4392C30.5548 30.7131 30.7577 30.9679 31.0211 31.1472C31.2846 31.3264 31.5962 31.4217 31.915 31.4203Z" fill="#F5B923"/>
</g>
</g>
<rect x="17.2998" y="0.904785" width="41" height="20" rx="4" fill="#FF0000"/>
<path d="M24.2492 5.97678H25.9532L28.9172 10.6568C29.3972 11.4368 30.0332 12.7328 30.0332 12.7328H30.0692C30.0692 12.7328 29.9732 11.3408 29.9732 10.4528V5.97678H31.5452V14.9048H29.8412L26.8892 10.2488C26.3972 9.45678 25.7612 8.16078 25.7612 8.16078H25.7372C25.7372 8.16078 25.8212 9.55279 25.8212 10.4408V14.9048H24.2492V5.97678ZM33.214 5.97678H39.742V7.39278H34.87V9.60078H39.178V10.9328H34.87V13.4528H39.85V14.9048H33.214V5.97678ZM40.5456 5.97678H42.2496L43.3056 10.2968C43.5696 11.3888 43.7736 13.2128 43.7736 13.2128H43.7976C43.7976 13.2128 44.0856 11.3168 44.3376 10.2488L45.4296 5.97678H47.0616L48.1416 10.2368C48.3936 11.3168 48.6576 13.2128 48.6576 13.2128H48.6816C48.6816 13.2128 48.9216 11.3768 49.1976 10.2848L50.2536 5.97678H51.9576L49.4856 14.9048H47.8656L46.7256 10.2368C46.4856 9.28878 46.2576 7.56078 46.2576 7.56078H46.2336C46.2336 7.56078 45.9936 9.28878 45.7776 10.2368L44.5776 14.9048H42.9216L40.5456 5.97678Z" fill="white"/>
<defs>
<clipPath id="clip0_7010_1616">
<rect width="41.81" height="41.81" fill="white" transform="translate(0.394531 8.93994)"/>
</clipPath>
<clipPath id="clip1_7010_1616">
<rect width="41.81" height="41.81" fill="white" transform="translate(0.394531 8.93994)"/>
</clipPath>
</defs>
</svg>
